<?xml version="1.0" encoding="UTF-8"?>
<svg id="Capa_1" data-name="Capa 1" xmlns="http://www.w3.org/2000/svg" viewBox="0 0 317.52 173.94">
  <defs>
    <style>
      .cls-1 {
        fill: #fff;
      }
    </style>
  </defs>
  <path class="cls-1" d="M176.07,90.16l11.11,26.07c.35,0,.26-3.1.23-3.65-.27-5.91-1.13-15.28-.47-20.94.07-.62.05-1.1.66-1.47h18.8l4.92,80.33-21.59.43-14.73-47.01.79,47.15c-.14.55-.52.61-1.01.7-2.69.5-7.65-.1-10.7-.02-2.61.07-5.55.85-8.32.45l-1.28-82.04h21.58Z"/>
  <polygon class="cls-1" points="141.03 3.42 144.04 71.8 88.93 80.36 86.53 69.03 86.98 2.56 109.87 3.39 109.62 50 117.75 49.57 118.17 3.42 141.03 3.42"/>
  <path class="cls-1" d="M263.23,2.99l4.3,70.1-22.39,1.18-12.88-35.82,1.09,37.2c-.58.83-13.46.75-15.43.81-2.62.08-5.54.84-8.32.45l1.35-73.65.56-.59,21.61.51,11.31,27.15-.21-27.35h19.01Z"/>
  <path class="cls-1" d="M76.73,2.56l.34,25.77-13.15,12.48,15.75,3.69.3,28.6c-3.68,1.48-7.25,3.09-11.02,4.36-5.01,1.68-12.64,4.1-17.75,4.9-6.96,1.09-14.03.12-21.04.55L29.72,0l47.01,2.56ZM50.66,32.48c1.64-1.21,7.69-6.98,6.23-9l-6.23-.4v9.4ZM51.09,54.69v8.76c0,.26.61.6.98.58,1.41-.09,4.16-1.81,5.88-1.89l-.23-4.89-6.63-2.56Z"/>
  <path class="cls-1" d="M44.25,91.44l1.6,8.02c2.86,14.34,4.29,29.03,6.54,43.49l-11.18,26.22-40.12,3.04L0,89.71l44.25,1.73ZM28.82,116.7l-8.5-.9,1.71,30.34,6.73-.53c.96-2.95,2.56-5.87,2.24-9.08l-2.18-19.83Z"/>
  <path class="cls-1" d="M188.25,52.13l-15.83,1.05.02,6.64,30.34-1.28.83,22.2-52.12,1.12-1.94-78.03,52.18-2.15.85,26.55-30.13,2.13c-.14,2.11-1.26,4.99.19,6.82h15.6v14.95Z"/>
  <polygon class="cls-1" points="118.17 123.49 133.55 123.49 133.55 138.87 118.6 139.3 118.6 146.56 146.82 144.6 148.08 170.92 98.51 172.63 97.72 90.43 145.33 88 146.61 114.54 118.17 117.29 118.17 123.49"/>
  <path class="cls-1" d="M288.23,123.49c3.06-.09,6.14.11,9.2.02,1.83-.06,4.26-1.29,5.75.2v14.53l-1.07.64-13.89.43v6.84l27.79-1.53,1.51,25.91-49.81,2.54.43-83.32,46.82-1.73,1.28,26.55-28.01,2.75v6.2Z"/>
  <path class="cls-1" d="M225.85,120.71c-.38.61-.85.59-1.47.66-1.34.16-10.38.08-10.87-.49l-.48-31.58,48.52.54c.65.23.59.8.64,1.37.87,9.3-1.09,19.47-.45,28.86-4.02.46-7.89-.2-11.93.38l-1.52-8.52c-.34-.73-2.73-.08-2.83.27l5.59,54.87-24.79.85,2.57-54.88-2.31-.27c-.19.05-.69,1.41-.69,1.52v6.41Z"/>
  <path class="cls-1" d="M90.82,89.98l-2.04,83.24-1.33.72-27.57-1.7-1.93-80.74.59-.63,32.28-.89ZM78.92,109.61c-.22,2.19.23,6.71,2.4,7.74,2.96,1.4,4.79-6.77,3.76-8.58-.65-1.14-6.9-2.78-8.34-2.91-2.44-.22-10.39.51-12.1,2.28-1.33,1.37-.08,11.47,3.41,9.02,2.02-1.42,1.83-4.98,2.51-6.96.2-.59-.11-.7.84-.58-.06,2.01.89,8.7,3.68,7.87s2.43-4.96,2.95-6.97c.19-.74-.12-1.08.91-.9ZM75.3,136.69c-1.18.73-2.4-2.04-3.4-2.36-4.38-1.4-6.17,6.16-5.08,9.52,2.09,1.42,4.02.4,4.17,4.17,1.03.22.61-.22.83-.6,1.1-1.95,1.97-4.39,4.53-2.33.81.35,1.08,3.23,1.97,2.93.29-.1,1.15-5.13,4.17-3.76.35-3.43.83-8-2.88-9.71-3.13-1.43-3.46,1.61-4.31,2.13ZM70.99,153.03c.54-3.22-2.15-9.99-4.68-4.73-1.81,3.76-1.48,5.88,2.32,7.01,3.4,1.01,11.44,1.1,14.41-1.08s-1.46-11.74-3.92-6.21c-.82,1.84-.14,3.5-1.19,5-.83,0-.49-6.99-3.55-6.69s-1.15,6.3-3.39,6.7Z"/>
</svg>